:FULLY-SPECIFIED
:FORCE-ALL-JOINTS-BE-3DOF
:DEGREES
2141
root -2.36229 15.0857 1.1209 903.8 5.0923 186.51
lfemur -51.987 16.3705 -21.4908
ltibia 39.9249 0 0
lfoot 9.76118 20.3052 0
ltoes -8.00831 0 0
rfemur -1.30361 -5.01007 27.5007
rtibia 46.6152 0 0
rfoot -26.3228 -0.598553 0
rtoes -30.7654 0 0
lowerback 11.5559 1.31726 -0.576429
upperback -2.54341 2.0874 3.3857
thorax -9.3713 1.197 3.54679
lowerneck -4.65567 -2.26339 -7.20614
upperneck 6.56249 -2.87835 4.79992
head 3.23269 -1.44606 2.69406
lclavicle 1.13068e-14 -1.96065e-14 0
lhumerus 43.5954 4.3319 117.954
lradius 17.5536 0 0
lwrist -65.0173 0 0
lhand -36.0468 415.878 0
lfingers 7.12502 0 0
lthumb -9.15336 -291.341 0
rclavicle 1.13068e-14 -1.96065e-14 0
rhumerus -39.4241 27.7852 -98.1162
rradius 102.198 0 0
rwrist -61.0711 0 0
rhand -14.1491 -393.131 0
rfingers 7.12502 0 0
rthumb 11.9858 297.227 0
2142
root -2.33977 15.0714 0.910814 903.756 4.65539 186.35
lfemur -51.2763 16.1851 -21.3632
ltibia 40.1072 0 0
lfoot 9.26322 20.5216 0
ltoes -8.28071 0 0
rfemur -2.01807 -5.19013 27.2303
rtibia 46.7736 0 0
rfoot -25.9312 -0.425146 0
rtoes -30.4115 0 0
lowerback 11.5858 1.32054 -0.720836
upperback -2.52271 2.06067 3.33825
thorax -9.36538 1.18831 3.58287
lowerneck -4.57212 -2.38325 -7.28633
upperneck 6.5541 -3.05333 4.87562
head 3.23531 -1.53503 2.71924
lclavicle 1.0987e-14 -1.93749e-14 0
lhumerus 42.134 4.09393 117.816
lradius 18.6485 0 0
lwrist -63.4962 0 0
lhand -35.7284 416.501 0
lfingers 7.12502 0 0
lthumb -8.84606 -292.941 0
rclavicle 1.0987e-14 -1.93749e-14 0
rhumerus -38.3512 27.3073 -97.6619
rradius 101.059 0 0
rwrist -59.8845 0 0
rhand -14.2377 -393.29 0
rfingers 7.12502 0 0
rthumb 11.9003 297.063 0
2143
root -2.31657 15.0568 0.694737 903.71 4.20495 186.186
lfemur -50.5449 15.9934 -21.2313
ltibia 40.2981 0 0
lfoot 8.74816 20.743 0
ltoes -8.56823 0 0
rfemur -2.75609 -5.37476 26.9519
rtibia 46.938 0 0
rfoot -25.5278 -0.247958 0
rtoes -30.0464 0 0
lowerback 11.6167 1.32396 -0.869544
upperback -2.50124 2.03318 3.28938
thorax -9.35919 1.17937 3.62001
lowerneck -4.4859 -2.50676 -7.36883
upperneck 6.54611 -3.2337 4.95396
head 3.23822 -1.62673 2.74527
lclavicle 1.06481e-14 -1.91234e-14 0
lhumerus 40.6264 3.84625 117.669
lradius 19.7797 0 0
lwrist -61.9205 0 0
lhand -35.4009 417.09 0
lfingers 7.12502 0 0
lthumb -8.52993 -294.671 0
rclavicle 1.06481e-14 -1.91234e-14 0
rhumerus -37.2402 26.8179 -97.1909
rradius 99.8885 0 0
rwrist -58.6565 0 0
rhand -14.326 -393.451 0
rfingers 7.12502 0 0
rthumb 11.8152 296.897 0
2144
root -2.29273 15.0417 0.472894 903.663 3.7415 186.017
lfemur -49.7937 15.7955 -21.0951
ltibia 40.4971 0 0
lfoot 8.21665 20.9693 0
ltoes -8.87041 0 0
rfemur -3.51681 -5.56377 26.6658
rtibia 47.1084 0 0
rfoot -25.1132 -0.0671364 0
rtoes -29.6703 0 0
lowerback 11.6485 1.32752 -1.0224
upperback -2.47905 2.00496 3.23914
thorax -9.35274 1.1702 3.65816
lowerneck -4.39713 -2.63379 -7.45354
upperneck 6.53851 -3.41926 5.03482
head 3.24142 -1.72104 2.77213
lclavicle 1.02908e-14 -1.88526e-14 0
lhumerus 39.0745 3.58923 117.514
lradius 20.9459 0 0
lwrist -60.2921 0 0
lhand -35.0645 417.648 0
lfingers 7.12502 0 0
lthumb -8.20531 -296.527 0
rclavicle 1.02908e-14 -1.88526e-14 0
rhumerus -36.0926 26.3175 -96.7038
rradius 98.6872 0 0
rwrist -57.3887 0 0
rhand -14.4138 -393.613 0
rfingers 7.12502 0 0
rthumb 11.7305 296.73 0
2145
root -2.26826 15.0262 0.245512 903.614 3.26558 185.844
lfemur -49.0232 15.5918 -20.9551
ltibia 40.7039 0 0
lfoot 7.66936 21.2002 0
ltoes -9.18675 0 0
rfemur -4.29941 -5.75701 26.3723
rtibia 47.2846 0 0
rfoot -24.6878 0.117168 0
rtoes -29.2837 0 0
lowerback 11.6813 1.33123 -1.17923
upperback -2.45616 1.97604 3.18758
thorax -9.34603 1.1608 3.6973
lowerneck -4.30589 -2.7642 -7.54039
upperneck 6.53128 -3.6098 5.11812
head 3.24489 -1.81786 2.79978
lclavicle 9.91577e-15 -1.8563e-14 0
lhumerus 37.48 3.32318 117.35
lradius 22.1458 0 0
lwrist -58.6131 0 0
lhand -34.7198 418.173 0
lfingers 7.12502 0 0
lthumb -7.87254 -298.503 0
rclavicle 9.91577e-15 -1.8563e-14 0
rhumerus -34.9098 25.8064 -96.2012
rradius 97.4564 0 0
rwrist -56.0826 0 0
rhand -14.5013 -393.777 0
rfingers 7.12502 0 0
rthumb 11.6462 296.561 0
2146
root -2.2432 15.0104 0.0128209 903.564 2.77771 185.666
lfemur -48.2344 15.3824 -20.8111
ltibia 40.9181 0 0
lfoot 7.10696 21.4355 0
ltoes -9.51678 0 0
rfemur -5.10304 -5.9543 26.0717
rtibia 47.4664 0 0
rfoot -24.2522 0.304805 0
rtoes -28.8871 0 0
lowerback 11.715 1.33507 -1.33989
upperback -2.43261 1.94646 3.13474
thorax -9.33908 1.15119 3.73737
lowerneck -4.2123 -2.89786 -7.62926
upperneck 6.52441 -3.80512 5.20375
head 3.24863 -1.9171 2.82819
lclavicle 9.52388e-15 -1.82553e-14 0
lhumerus 35.8447 3.04847 117.178
lradius 23.3778 0 0
lwrist -56.8855 0 0
lhand -34.3669 418.668 0
lfingers 7.12502 0 0
lthumb -7.53197 -300.594 0
rclavicle 9.52388e-15 -1.82553e-14 0
rhumerus -33.6933 25.2853 -95.6837
rradius 96.1973 0 0
rwrist -54.7397 0 0
rhand -14.5883 -393.942 0
rfingers 7.12502 0 0
rthumb 11.5623 296.391 0
